<svg width="12" height="12" viewBox="0 0 12 12" fill="none" xmlns="http://www.w3.org/2000/svg">
<path fill-rule="evenodd" clip-rule="evenodd" d="M5.97458 0C2.39981 0 -0.441159 3.07624 0.0568361 6.67508C0.374233 8.96831 2.11362 10.8937 4.39179 11.5009C5.24018 11.7271 6.11617 11.7751 6.99576 11.6233C7.73016 11.4961 8.48375 11.5531 9.20314 11.7331L10.0773 11.9516C11.2107 12.2354 12.2403 11.2267 11.9505 10.1155C11.9505 10.1155 11.7885 9.49392 11.7837 9.47412C11.6025 8.77811 11.5635 8.0431 11.7507 7.34889C11.9823 6.49328 12.0213 5.56147 11.8131 4.59606C11.2623 2.04903 8.92354 0 5.97458 0ZM5.97457 1.20001C8.34575 1.20001 10.2027 2.82603 10.6401 4.84986C10.8003 5.59147 10.7841 6.32648 10.5927 7.03569C9.78273 10.0309 12.1509 11.2333 9.49413 10.5685C8.61034 10.3477 7.68935 10.2853 6.79116 10.4407C6.09817 10.5607 5.39618 10.5265 4.70078 10.3417C2.8846 9.85752 1.49562 8.3179 1.24542 6.51068C0.842824 3.59824 3.1612 1.20001 5.97457 1.20001Z" fill="current"/>
</svg>
