<svg width="20" height="20" viewBox="0 0 20 20" fill="none" xmlns="http://www.w3.org/2000/svg">
<path fill-rule="evenodd" clip-rule="evenodd" d="M18 20C19.105 20 20 19.3 20 18.196V13.196C20 12.643 19.552 12.196 19 12.196C18.448 12.196 18 12.643 18 13.196V15.574C18 16.02 17.461 16.243 17.146 15.928L14.121 12.903C13.731 12.512 13.098 12.512 12.707 12.903C12.317 13.293 12.317 13.926 12.707 14.317L15.732 17.244C16.047 17.559 15.824 18 15.379 18H13C12.448 18 12 18.546 12 19.098V19.049C12 19.601 12.448 20 13 20H18ZM0 7.196C0 7.748 0.448 8.196 1 8.196C1.552 8.196 2 7.748 2 7.196V4.817C2 4.371 2.539 4.148 2.854 4.463L5.879 7.489C6.269 7.879 6.902 7.879 7.293 7.489C7.683 7.098 7.683 6.465 7.293 6.074L4.268 2.951C3.953 2.636 4.176 2 4.621 2H7C7.552 2 8 1.65 8 1.098V1.049C8 0.497 7.552 0 7 0H2C0.895 0 0 1.091 0 2.196V7.196ZM20 2C20 0.895 19.3 0 18.196 0H13.196C12.643 0 12.196 0.448 12.196 1C12.196 1.552 12.643 2 13.196 2H15.574C16.02 2 16.243 2.539 15.928 2.854L12.903 5.879C12.512 6.269 12.512 6.902 12.903 7.293C13.293 7.683 13.926 7.683 14.317 7.293L17.244 4.268C17.559 3.953 18 4.176 18 4.621V7C18 7.552 18.546 8 19.098 8H19.049C19.601 8 20 7.552 20 7V2ZM2.196 20C1.091 20 0 19.105 0 18V13C0 12.448 0.497 12 1.049 12H1.098C1.65 12 2 12.448 2 13V15.379C2 15.824 2.636 16.047 2.951 15.732L6.074 12.707C6.465 12.317 7.098 12.317 7.488 12.707C7.879 13.098 7.879 13.731 7.488 14.121L4.463 17.146C4.148 17.461 4.371 18 4.817 18H7.196C7.748 18 8.196 18.448 8.196 19C8.196 19.552 7.748 20 7.196 20H2.196Z" fill="current"/>
</svg>
