<svg width="292" height="205" viewBox="0 0 292 205" fill="current">
<path d="M133.453 170.719V204.75H29.6719L48.9254 170.719H133.453ZM131.906 24.0469L98.5 83L87.5517 102.445L29.6719 204.75H0.84375V179.859L32 126H74.2254L98.5 83H56.5L83.5 36.1719L104.344 0H131.906V24.0469ZM104.344 0L83.5 36.1719L0 34.1719V0H104.344Z" fill="current"/>
<path d="M212.625 204.75H200.391V170.719H212.625C222.562 170.719 230.297 168.938 235.828 165.375C241.359 161.812 245.25 156.188 247.5 148.5C249.338 142.471 250.456 134.971 250.852 126C250.852 128.689 250.961 123.533 250.852 126H291.938L250.989 83C251.007 84.0937 250.989 81.8645 250.989 83C250.861 74.9735 250.26 68.0724 249.188 62.2969C247.969 55.6406 245.906 50.2969 243 46.2656C240.094 42.1406 236.203 39.0938 231.328 37.125C226.453 35.1562 207.609 34.1719 200.391 34.1719V0H175.781H213.188C225 0 235.734 1.92188 245.391 5.76562C255.047 9.60938 263.344 15.2344 270.281 22.6406C277.219 29.9531 282.562 39 286.312 49.7812C290.062 60.5625 291.938 69.2188 291.938 83H250.989L291.938 126C291.938 139.875 290.062 144.422 286.312 155.109C282.562 165.797 277.219 174.844 270.281 182.25C263.438 189.562 255.141 195.141 245.391 198.984C235.641 202.828 224.719 204.75 212.625 204.75ZM200.391 0V83H159.188L200.391 126V204.75H159.188V126H200.391L159.188 83V0H200.391Z" fill="current"/>
<path d="M10.8369 85.6094V124H3.11133V85.6094H10.8369ZM22.8604 101.931V108.312H10.8369V101.931H22.8604ZM24.3369 85.6094V92.0166H10.8369V85.6094H24.3369Z" fill="current"/>
<path d="M91.9993 101.825V108.232C91.9993 110.939 91.6654 113.312 90.9974 115.352C90.347 117.373 89.4154 119.069 88.2025 120.44C87.0071 121.794 85.557 122.813 83.8519 123.499C82.1644 124.185 80.2923 124.527 78.2357 124.527C76.179 124.527 74.2982 124.185 72.5931 123.499C70.9056 122.813 69.4466 121.794 68.2161 120.44C67.0032 119.069 66.0628 117.373 65.3948 115.352C64.7269 113.312 64.3929 110.939 64.3929 108.232V101.825C64.3929 99.0479 64.7181 96.6221 65.3685 94.5479C66.0189 92.4561 66.9593 90.7158 68.1898 89.3271C69.4202 87.9209 70.8792 86.8662 72.5667 86.1631C74.2542 85.4424 76.1263 85.082 78.1829 85.082C80.2396 85.082 82.1116 85.4424 83.7991 86.1631C85.4866 86.8662 86.9456 87.9209 88.1761 89.3271C89.4066 90.7158 90.347 92.4561 90.9974 94.5479C91.6654 96.6221 91.9993 99.0479 91.9993 101.825ZM84.3265 108.232V101.772C84.3265 99.9443 84.1946 98.3887 83.931 97.1055C83.6673 95.8047 83.2718 94.7412 82.7445 93.915C82.2171 93.0889 81.5755 92.4824 80.8196 92.0957C80.0638 91.709 79.1849 91.5156 78.1829 91.5156C77.181 91.5156 76.2933 91.709 75.5198 92.0957C74.764 92.4824 74.1224 93.0889 73.595 93.915C73.0853 94.7412 72.6986 95.8047 72.4349 97.1055C72.1888 98.3887 72.0657 99.9443 72.0657 101.772V108.232C72.0657 109.99 72.1976 111.493 72.4613 112.741C72.7249 113.989 73.1204 115.009 73.6478 115.8C74.1751 116.591 74.8167 117.18 75.5726 117.566C76.346 117.936 77.2337 118.12 78.2357 118.12C79.22 118.12 80.0902 117.936 80.846 117.566C81.6195 117.18 82.2611 116.591 82.7708 115.8C83.2806 115.009 83.6673 113.989 83.931 112.741C84.1946 111.493 84.3265 109.99 84.3265 108.232Z" fill="current"/>
<path d="M152.094 111.212H159.767C159.662 114.095 159.082 116.529 158.027 118.516C156.972 120.484 155.469 121.979 153.518 122.998C151.585 124.018 149.247 124.527 146.505 124.527C144.378 124.527 142.488 124.176 140.836 123.473C139.183 122.752 137.777 121.697 136.617 120.309C135.457 118.92 134.578 117.206 133.98 115.167C133.4 113.11 133.11 110.746 133.11 108.074V101.562C133.11 98.8896 133.418 96.5254 134.033 94.4688C134.666 92.4121 135.562 90.6895 136.722 89.3008C137.9 87.8945 139.315 86.8398 140.967 86.1367C142.637 85.416 144.518 85.0557 146.61 85.0557C149.405 85.0557 151.743 85.583 153.624 86.6377C155.505 87.6924 156.955 89.2305 157.974 91.252C159.011 93.2559 159.635 95.708 159.846 98.6084H152.147C152.094 96.7803 151.883 95.3477 151.514 94.3105C151.163 93.2559 150.6 92.5176 149.827 92.0957C149.053 91.6562 147.981 91.4365 146.61 91.4365C145.59 91.4365 144.712 91.6211 143.973 91.9902C143.235 92.3418 142.629 92.9131 142.154 93.7041C141.679 94.4951 141.328 95.5322 141.099 96.8154C140.888 98.0986 140.783 99.6631 140.783 101.509V108.074C140.783 109.885 140.88 111.432 141.073 112.715C141.266 113.98 141.574 115.018 141.996 115.826C142.418 116.635 142.989 117.224 143.71 117.593C144.448 117.962 145.38 118.146 146.505 118.146C147.805 118.146 148.851 117.953 149.642 117.566C150.451 117.18 151.048 116.485 151.435 115.483C151.822 114.481 152.042 113.058 152.094 111.212Z" fill="current"/>
<path d="M218.017 85.6094H225.716V111.977C225.716 114.93 225.171 117.338 224.081 119.201C223.009 121.047 221.523 122.4 219.625 123.262C217.727 124.105 215.556 124.527 213.112 124.527C210.651 124.527 208.463 124.105 206.547 123.262C204.631 122.4 203.137 121.047 202.064 119.201C201.01 117.338 200.482 114.93 200.482 111.977V85.6094H208.182V111.977C208.182 113.646 208.366 114.93 208.735 115.826C209.122 116.723 209.676 117.338 210.396 117.672C211.135 117.988 212.04 118.146 213.112 118.146C214.202 118.146 215.099 117.988 215.802 117.672C216.522 117.338 217.067 116.723 217.436 115.826C217.823 114.93 218.017 113.646 218.017 111.977V85.6094Z" fill="current"/>
<path d="M284.044 113.901C284.044 113.216 283.983 112.592 283.86 112.029C283.737 111.467 283.473 110.948 283.069 110.474C282.682 109.999 282.111 109.524 281.355 109.05C280.616 108.575 279.65 108.083 278.454 107.573C277.031 106.976 275.651 106.343 274.315 105.675C272.979 104.989 271.775 104.198 270.702 103.302C269.63 102.405 268.778 101.351 268.145 100.138C267.53 98.9072 267.222 97.4658 267.222 95.8135C267.222 94.1963 267.512 92.7285 268.092 91.4102C268.69 90.0918 269.533 88.9668 270.623 88.0352C271.713 87.0859 272.988 86.3564 274.447 85.8467C275.923 85.3369 277.567 85.082 279.377 85.082C281.838 85.082 283.965 85.5918 285.758 86.6113C287.569 87.6309 288.966 89.0283 289.95 90.8037C290.952 92.5791 291.453 94.6182 291.453 96.9209H283.754C283.754 95.8311 283.596 94.873 283.28 94.0469C282.981 93.2031 282.497 92.5439 281.829 92.0693C281.161 91.5947 280.3 91.3574 279.245 91.3574C278.261 91.3574 277.444 91.5596 276.793 91.9639C276.16 92.3506 275.686 92.8867 275.369 93.5723C275.071 94.2402 274.921 94.9961 274.921 95.8398C274.921 96.4727 275.071 97.0439 275.369 97.5537C275.686 98.0459 276.116 98.4941 276.661 98.8984C277.206 99.2852 277.848 99.6631 278.586 100.032C279.342 100.401 280.168 100.762 281.065 101.113C282.805 101.799 284.343 102.555 285.679 103.381C287.015 104.189 288.131 105.104 289.028 106.123C289.924 107.125 290.601 108.259 291.058 109.524C291.515 110.79 291.743 112.231 291.743 113.849C291.743 115.448 291.462 116.907 290.9 118.226C290.355 119.526 289.555 120.651 288.5 121.601C287.446 122.532 286.171 123.253 284.677 123.763C283.2 124.272 281.548 124.527 279.72 124.527C277.945 124.527 276.266 124.281 274.684 123.789C273.102 123.279 271.704 122.515 270.491 121.495C269.296 120.458 268.356 119.148 267.67 117.566C266.985 115.967 266.642 114.077 266.642 111.897H274.367C274.367 113.058 274.482 114.051 274.71 114.877C274.939 115.686 275.29 116.336 275.765 116.828C276.24 117.303 276.82 117.663 277.505 117.909C278.208 118.138 279.008 118.252 279.905 118.252C280.924 118.252 281.733 118.059 282.33 117.672C282.946 117.285 283.385 116.767 283.649 116.116C283.912 115.466 284.044 114.728 284.044 113.901Z" fill="current"/>
</svg>
