<svg width="20" height="20" viewBox="0 0 20 20" fill="none" xmlns="http://www.w3.org/2000/svg">
<path fill-rule="evenodd" clip-rule="evenodd" d="M15.5556 4.44444H17.7778V2.22222H15.5556V4.44444ZM11.1111 4.44444H13.3333V2.22222H11.1111V4.44444ZM6.66667 4.44444H8.88889V2.22222H6.66667V4.44444ZM2.22222 4.44444H4.44444V2.22222H2.22222V4.44444ZM15.7689 0H13.5467H11.3245H9.10225H6.88002H4.6578H2.1855e-05V6.66667H4.6578H6.88002H9.10225H11.3245H13.5467H15.7689H20V0H15.7689ZM2.22225 15.5556V17.7778H4.44447V15.5556H2.22225ZM2.22225 11.1111V13.3333H4.44447V11.1111H2.22225ZM2.22225 6.66667V8.88889H4.44447V6.66667H2.22225ZM6.66667 17.1793V15.6978V14.2163V12.7348V11.2533V9.77185V6.66667H0V9.77185V11.2533V12.7348V14.2163V15.6978V17.1793V20H6.66667V17.1793Z" fill="current"/>
</svg>
