<svg width="20" height="20" viewBox="0 0 20 20" fill="none" xmlns="http://www.w3.org/2000/svg">
<path fill-rule="evenodd" clip-rule="evenodd" d="M5.49959 14.5004C5.88804 14.8889 5.88804 15.5177 5.49959 15.9052C5.11114 16.2936 4.48228 16.2936 4.09483 15.9052C3.70638 15.5177 3.70638 14.8889 4.09483 14.5004C4.48228 14.112 5.11114 14.112 5.49959 14.5004ZM17.3109 5.4986L14.6315 8.17798L13.9292 7.4756C13.5417 7.08715 12.9128 7.08715 12.5244 7.4756C12.1369 7.86305 12.1369 8.49291 12.5244 8.88036L13.2268 9.58274L11.822 10.9875L11.1196 10.2851C10.7312 9.89767 10.1023 9.89767 9.71487 10.2851C9.32643 10.6736 9.32643 11.3024 9.71487 11.6909L10.4173 12.3933L9.01249 13.798L8.30912 13.0956C7.92167 12.7072 7.2928 12.7072 6.90435 13.0956C6.5169 13.4831 6.5169 14.112 6.90435 14.5004L7.60674 15.2028L5.49959 17.3099C5.11114 17.6984 4.48228 17.6984 4.09483 17.3099L2.69006 15.9052C2.30162 15.5177 2.30162 14.8889 2.69006 14.5004L14.5014 2.68907C14.8889 2.30062 15.5177 2.30062 15.9062 2.68907L17.3109 4.09383C17.6994 4.48228 17.6994 5.11114 17.3109 5.4986ZM19.4181 3.39145L16.6085 0.581924C15.8327 -0.193975 14.5749 -0.193975 13.799 0.581924L0.581924 13.798C-0.193975 14.5739 -0.193975 15.8317 0.581924 16.6076L3.39244 19.4181C4.16834 20.194 5.42607 20.194 6.20197 19.4181L9.01249 16.6076L10.4173 15.2028L11.822 13.798L13.2268 12.3933L14.6315 10.9875L16.0373 9.58274L19.4181 6.20098C20.194 5.42508 20.194 4.16735 19.4181 3.39145Z" fill="current"/>
</svg>
