<svg width="20" height="20" viewBox="0 0 20 20" fill="none" xmlns="http://www.w3.org/2000/svg">
<path fill-rule="evenodd" clip-rule="evenodd" d="M18 6.1716L6.243 17.9996H3.414L18 3.3436V6.1716ZM18 11.8286L11.899 17.9996H9.071L18 8.9996V11.8286ZM18 16.9996C18 17.5526 17.552 17.9996 17 17.9996H14.728L18 14.6566V16.9996ZM2 13.6866L13.757 1.9996H16.586L2 16.5146V13.6866ZM2 8.0296L8.101 1.9996H10.929L2 10.8576V8.0296ZM2 2.9996C2 2.4476 2.448 1.9996 3 1.9996H5.272L2 5.2006V2.9996ZM18 -0.000396729H2C0.896 -0.000396729 0 0.895603 0 1.9996V17.9996C0 19.1046 0.896 19.9996 2 19.9996H18C19.104 19.9996 20 19.1046 20 17.9996V1.9996C20 0.895603 19.104 -0.000396729 18 -0.000396729Z" fill="current"/>
</svg>
