<svg width="20" height="20" viewBox="0 0 20 20" fill="none" xmlns="http://www.w3.org/2000/svg">
<path fill-rule="evenodd" clip-rule="evenodd" d="M9.12182 17.9492C8.33382 17.8632 7.57982 17.6642 6.87782 17.3652L17.3648 6.87821C17.6638 7.58021 17.8628 8.33421 17.9488 9.12221L9.12182 17.9492ZM12.2188 17.6802L17.6798 12.2192C16.9198 14.8472 14.8478 16.9192 12.2188 17.6802ZM5.10282 16.3122C4.57382 15.9002 4.09982 15.4262 3.68782 14.8972L14.8978 3.68821C15.4258 4.09921 15.9008 4.57421 16.3118 5.10221L5.10282 16.3122ZM2.63482 13.1222C2.33582 12.4202 2.13682 11.6662 2.05082 10.8782L10.8778 2.05121C11.6658 2.13721 12.4198 2.33621 13.1218 2.63521L2.63482 13.1222ZM7.78082 2.32021L2.31982 7.78021C3.08082 5.15221 5.15282 3.08021 7.78082 2.32021ZM19.9948 9.90421C19.9868 9.04421 19.8638 8.21421 19.6518 7.41921C19.4608 6.70521 19.1988 6.02121 18.8628 5.37921C18.5458 4.77221 18.1718 4.19921 17.7418 3.67221C17.3188 3.15521 16.8448 2.68121 16.3278 2.25821C15.8008 1.82821 15.2278 1.45421 14.6208 1.13621C13.9788 0.801214 13.2948 0.539214 12.5808 0.348214C11.7858 0.136214 10.9548 0.0132136 10.0958 0.00521362C10.0638 0.00421362 10.0318 0.000213623 9.99982 0.000213623C4.47682 0.000213623 -0.000183105 4.47721 -0.000183105 10.0002C-0.000183105 10.0322 0.00481689 10.0632 0.00481689 10.0952C0.0128169 10.9552 0.136817 11.7852 0.348817 12.5802C0.538817 13.2952 0.800817 13.9792 1.13682 14.6202C1.45382 15.2282 1.82782 15.8012 2.25782 16.3272C2.68182 16.8442 3.15482 17.3182 3.67282 17.7412C4.19882 18.1722 4.77182 18.5462 5.37982 18.8632C6.02082 19.1992 6.70482 19.4612 7.41982 19.6512C8.21482 19.8632 9.04482 19.9872 9.90382 19.9952C9.93682 19.9952 9.96782 20.0002 9.99982 20.0002C15.5228 20.0002 19.9998 15.5232 19.9998 10.0002C19.9998 9.96721 19.9958 9.93621 19.9948 9.90421Z" fill="current"/>
</svg>
