<svg width="12" height="12" viewBox="0 0 12 12" fill="none" xmlns="http://www.w3.org/2000/svg">
<path fill-rule="evenodd" clip-rule="evenodd" d="M5.39993 4.18039H6.59991C6.93111 4.18039 7.1999 4.44986 7.1999 4.78189C7.1999 5.11391 6.93111 5.38338 6.59991 5.38338H5.39993V6.58638C5.39993 6.9184 5.13113 7.18787 4.79993 7.18787C4.46874 7.18787 4.19994 6.9184 4.19994 6.58638V5.38338H2.99996C2.66876 5.38338 2.39996 5.11391 2.39996 4.78189C2.39996 4.44986 2.66876 4.18039 2.99996 4.18039H4.19994V2.9774C4.19994 2.64537 4.46874 2.3759 4.79993 2.3759C5.13113 2.3759 5.39993 2.64537 5.39993 2.9774V4.18039ZM11.8241 11.8236C11.5901 12.0588 11.2097 12.0588 10.9757 11.8236L8.60571 9.4477L9.4541 8.59719L11.8241 10.9731C12.0587 11.2077 12.0587 11.589 11.8241 11.8236ZM4.79997 8.42094C2.81519 8.42094 1.20001 6.80231 1.20001 4.81196C1.20001 2.82221 2.81519 1.20298 4.79997 1.20298C6.78474 1.20298 8.39992 2.82221 8.39992 4.81196C8.39992 6.80231 6.78474 8.42094 4.79997 8.42094ZM4.79994 0C2.14917 0 0 2.15456 0 4.81197C0 7.46998 2.14917 9.62394 4.79994 9.62394C7.45071 9.62394 9.59988 7.46998 9.59988 4.81197C9.59988 2.15456 7.45071 0 4.79994 0Z" fill="current"/>
</svg>
