<svg width="12" height="12" viewBox="0 0 12 12" fill="none" xmlns="http://www.w3.org/2000/svg">
<path fill-rule="evenodd" clip-rule="evenodd" d="M3.07014 4.18041H6.75427C7.09322 4.18041 7.3683 4.44988 7.3683 4.7819C7.3683 5.11393 7.09322 5.3834 6.75427 5.3834H3.07014C2.7312 5.3834 2.45612 5.11393 2.45612 4.7819C2.45612 4.44988 2.7312 4.18041 3.07014 4.18041ZM11.8199 10.9731C12.06 11.2077 12.06 11.589 11.8199 11.8236C11.5799 12.0588 11.1912 12.0588 10.9517 11.8236L8.45081 9.4477L9.31903 8.59719L11.8199 10.9731ZM4.91216 8.42094C2.88098 8.42094 1.22803 6.80231 1.22803 4.81196C1.22803 2.82221 2.88098 1.20298 4.91216 1.20298C6.94335 1.20298 8.5963 2.82221 8.5963 4.81196C8.5963 6.80231 6.94335 8.42094 4.91216 8.42094ZM4.91218 0C2.19943 0 0 2.15456 0 4.81197C0 7.46998 2.19943 9.62394 4.91218 9.62394C7.62493 9.62394 9.82436 7.46998 9.82436 4.81197C9.82436 2.15456 7.62493 0 4.91218 0Z" fill="current"/>
</svg>
